<svg xmlns="http://www.w3.org/2000/svg" width="1033.527" height="142.171" viewBox="0 0 273.454 37.616" fill="#fff" xmlns:v="https://vecta.io/nano"><path d="M249.14.599l10.687 9.595h13.627V.599zm-3.271.748v11.309l11.952 10.731h15.251v-9.595h-16.191v-2.559zm0 14.994v20.62h27.585v-9.595h-16.573v-1.139zM211.216.599l10.687 9.595h4.722c1.854 0 3.598.872 3.598 2.835 0 2.017-1.744 2.889-3.598 2.889h-6.706v-3.82l-11.012-9.886v11.309l13.358 11.993h1.633l5.016 11.448h12.539l-6.596-12.866c2.889-1.417 6.542-4.743 6.542-11.012 0-6.815-4.579-12.485-13.084-12.485zm-2.309 16.606v19.756h11.012v-9.87zM185.083 0c-11.23 0-19.899 7.632-19.899 18.808s8.668 18.808 19.899 18.808c3.371 0 6.508-.692 9.252-1.957l-5.054-8.754c-1.207.64-2.617 1.007-4.197 1.007-5.288 0-8.722-4.034-8.722-9.104s3.434-9.104 8.722-9.104c1.58 0 2.99.367 4.197 1.007l5.054-8.755C191.59.692 188.453 0 185.083 0zm11.656 3.277l-5.27 9.127c1.492 1.639 2.337 3.893 2.337 6.404s-.844 4.765-2.336 6.403l5.27 9.127c5.035-3.256 8.242-8.736 8.242-15.53s-3.207-12.275-8.243-15.531zM147.194 0c-3.769 0-7.23.833-10.18 2.35l5.117 8.863c1.388-.954 3.105-1.509 5.063-1.509 3.271 0 6.106 2.453 7.033 5.288l9.486-4.416C161.532 5.561 156.734 0 147.194 0zm-12.523 3.776c-4.614 3.294-7.485 8.553-7.485 15.032 0 11.176 8.614 18.808 20.008 18.808 9.54 0 14.392-5.779 16.518-10.631l-9.486-4.361c-.927 2.835-3.762 5.288-7.033 5.288-5.288 0-8.832-4.034-8.832-9.104 0-2.129.632-4.07 1.748-5.612zm-11.41 33.186V.6h-11.012v36.362zm-24.641 0V10.194h9.704V.6H77.849v9.595h9.758v26.768zm-43.886 0V25.514h8.396c8.505 0 13.084-5.67 13.084-12.43C76.214 6.269 71.634.6 63.13.6H43.722v36.362zm6.978-21.043h-6.978v-5.724h6.978c1.854 0 3.326.927 3.326 2.889 0 1.908-1.472 2.835-3.325 2.835zM19.898 0C8.668 0 0 7.632 0 18.808s8.668 18.808 19.898 18.808c3.259 0 6.299-.647 8.977-1.832l-5.05-8.746c-1.147.555-2.463.874-3.927.874-5.288 0-8.722-4.034-8.722-9.104s3.434-9.104 8.722-9.104 8.723 4.034 8.723 9.104c0 2.628-.929 4.972-2.555 6.626l5.235 9.068c5.182-3.235 8.496-8.786 8.496-15.694C39.797 7.632 31.128 0 19.898 0z" paint-order="markers stroke fill"/></svg>